<?xml version="1.0" standalone="no"?>
 <!DOCTYPE svg PUBLIC "-//W3C//DTD SVG 1.1//EN" 
 "http://www.w3.org/Graphics/SVG/1.1/DTD/svg11.dtd"> 
<svg
  xmlns:svg="http://www.w3.org/2000/svg"
  xmlns="http://www.w3.org/2000/svg"
  xmlns:xlink="http://www.w3.org/1999/xlink"
  version="1.1"
  width="29.700220cm" height="21.000720cm" viewBox="0 0 116930 82680">
<title>SVG Picture created as 7seg-F_SilkS.svg date 2021/02/03 17:18:46 </title>
  <desc>Picture generated by PCBNEW </desc>
<g style="fill:#000000; fill-opacity:1;stroke:#000000; stroke-opacity:1;
stroke-linecap:round; stroke-linejoin:round;"
 transform="translate(0 0) scale(1 1)">
</g>
<g style="fill:#000000; fill-opacity:0.0; 
stroke:#000000; stroke-width:-0.000393701; stroke-opacity:1; 
stroke-linecap:round; stroke-linejoin:round;">
</g>
<g style="fill:#000000; fill-opacity:0.0; 
stroke:#000000; stroke-width:47.2441; stroke-opacity:1; 
stroke-linecap:round; stroke-linejoin:round;">
<path d="M39562 19531
L39562 19728
" />
<path d="M39933 19728
L39933 19531
" />
</g>
<g style="fill:#000000; fill-opacity:0.0; 
stroke:#000000; stroke-width:59.0551; stroke-opacity:1; 
stroke-linecap:round; stroke-linejoin:round;">
<circle cx="39803.1" cy="23759.8" r="176.069" /> 
<path d="M37047 19822
L36653 21791
" />
<path d="M36653 21791
L36259 23759
" />
<path d="M36259 23759
L39015 23759
" />
<path d="M39015 23759
L39409 21791
" />
<path d="M39803 19822
L39409 21791
" />
<path d="M39409 21791
L36653 21791
" />
<path d="M37047 19822
L39803 19822
" />
<path d="M40708 25570
L35748 25570
" />
<path d="M35748 19547
L35748 24035
" />
<path d="M40708 19547
L40708 24035
" />
<path d="M35748 18011
L40708 18011
" />
<path d="M39192 22572
L39192 20801
" />
<path d="M37007 23015
L37007 20801
" />
</g>
<g style="fill:#000000; fill-opacity:0.0; 
stroke:#000000; stroke-width:47.2441; stroke-opacity:1; 
stroke-linecap:round; stroke-linejoin:round;">
<path d="M38751 23266
L38751 23360
" />
<path d="M39098 23360
L39098 23266
" />
<path d="M38437 23266
L38437 23360
" />
<path d="M38783 23360
L38783 23266
" />
<path d="M38122 23262
L38122 23356
" />
<path d="M38468 23356
L38468 23262
" />
<path d="M37811 23262
L37811 23356
" />
<path d="M38157 23356
L38157 23262
" />
<path d="M37500 23262
L37500 23356
" />
<path d="M37846 23356
L37846 23262
" />
<path d="M37188 23262
L37188 23356
" />
<path d="M37535 23356
L37535 23262
" />
<path d="M36877 23262
L36877 23356
" />
<path d="M37224 23356
L37224 23262
" />
<path d="M37417 19968
L37322 19968
" />
<path d="M37322 20314
L37417 20314
" />
<path d="M40149 19334
L40673 19334
" />
<path d="M40149 19858
L40149 19334
" />
<path d="M40149 20358
L41196 20358
" />
<path d="M41196 20358
L41196 24381
" />
<path d="M40149 20358
L40149 24381
" />
<path d="M40149 24381
L41196 24381
" />
<path d="M35232 19354
L35755 19354
" />
<path d="M35232 19877
L35232 19354
" />
<path d="M35232 20377
L36279 20377
" />
<path d="M36279 20377
L36279 24401
" />
<path d="M35232 20377
L35232 24401
" />
<path d="M35232 24401
L36279 24401
" />
</g>
<g style="fill:#000000; fill-opacity:0.0; 
stroke:#000000; stroke-width:59.0551; stroke-opacity:1; 
stroke-linecap:round; stroke-linejoin:round;">
<g transform="rotate(-90 39248 19629.9)">
<text x="39248" y="19826.8"
textLength="845.426" font-size="524.934" lengthAdjust="spacingAndGlyphs"
text-anchor="middle" opacity="0">C1</text>
</g>
<path d="M39388 19695
L39407 19714
L39426 19770
L39426 19808
L39407 19864
L39369 19901
L39332 19920
L39257 19939
L39201 19939
L39126 19920
L39088 19901
L39051 19864
L39032 19808
L39032 19770
L39051 19714
L39069 19695
" />
<path d="M39426 19320
L39426 19545
" />
<path d="M39426 19433
L39032 19433
L39088 19470
L39126 19508
L39144 19545
" />
<text x="34488.2" y="19704.7"
textLength="864.173" font-size="524.934" lengthAdjust="spacingAndGlyphs"
text-anchor="middle" opacity="0">U2</text>
<path d="M34188 19292
L34188 19610
L34206 19648
L34225 19667
L34263 19685
L34338 19685
L34375 19667
L34394 19648
L34413 19610
L34413 19292
" />
<path d="M34581 19329
L34600 19311
L34638 19292
L34731 19292
L34769 19311
L34788 19329
L34806 19367
L34806 19404
L34788 19461
L34563 19685
L34806 19685
" />
<g transform="rotate(-90 36722.4 21687)">
<text x="36722.4" y="21883.9"
textLength="864.173" font-size="524.934" lengthAdjust="spacingAndGlyphs"
text-anchor="middle" opacity="0">U1</text>
</g>
<path d="M36506 21986
L36825 21986
L36863 21968
L36881 21949
L36900 21911
L36900 21836
L36881 21799
L36863 21780
L36825 21761
L36506 21761
" />
<path d="M36900 21368
L36900 21593
" />
<path d="M36900 21480
L36506 21480
L36563 21518
L36600 21555
L36619 21593
" />
<g transform="rotate(-90 39252 27401.6)">
<text x="39252" y="27598.4"
textLength="845.426" font-size="524.934" lengthAdjust="spacingAndGlyphs"
text-anchor="middle" opacity="0">R8</text>
</g>
<path d="M39430 27467
L39242 27598
" />
<path d="M39430 27692
L39036 27692
L39036 27542
L39055 27504
L39073 27485
L39111 27467
L39167 27467
L39205 27485
L39223 27504
L39242 27542
L39242 27692
" />
<path d="M39205 27242
L39186 27279
L39167 27298
L39130 27317
L39111 27317
L39073 27298
L39055 27279
L39036 27242
L39036 27167
L39055 27129
L39073 27110
L39111 27092
L39130 27092
L39167 27110
L39186 27129
L39205 27167
L39205 27242
L39223 27279
L39242 27298
L39280 27317
L39355 27317
L39392 27298
L39411 27279
L39430 27242
L39430 27167
L39411 27129
L39392 27110
L39355 27092
L39280 27092
L39242 27110
L39223 27129
L39205 27167
" />
<g transform="rotate(-90 38661.4 27401.6)">
<text x="38661.4" y="27598.4"
textLength="845.426" font-size="524.934" lengthAdjust="spacingAndGlyphs"
text-anchor="middle" opacity="0">R7</text>
</g>
<path d="M38839 27467
L38652 27598
" />
<path d="M38839 27692
L38445 27692
L38445 27542
L38464 27504
L38483 27485
L38520 27467
L38577 27467
L38614 27485
L38633 27504
L38652 27542
L38652 27692
" />
<path d="M38445 27335
L38445 27073
L38839 27242
" />
<g transform="rotate(-90 38110.2 27362.2)">
<text x="38110.2" y="27559.1"
textLength="845.426" font-size="524.934" lengthAdjust="spacingAndGlyphs"
text-anchor="middle" opacity="0">R6</text>
</g>
<path d="M38288 27427
L38100 27559
" />
<path d="M38288 27652
L37894 27652
L37894 27502
L37913 27465
L37932 27446
L37969 27427
L38025 27427
L38063 27446
L38082 27465
L38100 27502
L38100 27652
" />
<path d="M37894 27090
L37894 27165
L37913 27202
L37932 27221
L37988 27259
L38063 27277
L38213 27277
L38250 27259
L38269 27240
L38288 27202
L38288 27127
L38269 27090
L38250 27071
L38213 27052
L38119 27052
L38082 27071
L38063 27090
L38044 27127
L38044 27202
L38063 27240
L38082 27259
L38119 27277
" />
<g transform="rotate(-90 37559.1 27362.2)">
<text x="37559.1" y="27559.1"
textLength="845.426" font-size="524.934" lengthAdjust="spacingAndGlyphs"
text-anchor="middle" opacity="0">R5</text>
</g>
<path d="M37737 27427
L37549 27559
" />
<path d="M37737 27652
L37343 27652
L37343 27502
L37362 27465
L37380 27446
L37418 27427
L37474 27427
L37512 27446
L37530 27465
L37549 27502
L37549 27652
" />
<path d="M37343 27071
L37343 27259
L37530 27277
L37512 27259
L37493 27221
L37493 27127
L37512 27090
L37530 27071
L37568 27052
L37662 27052
L37699 27071
L37718 27090
L37737 27127
L37737 27221
L37718 27259
L37699 27277
" />
<g transform="rotate(-90 36968.5 27362.2)">
<text x="36968.5" y="27559.1"
textLength="845.426" font-size="524.934" lengthAdjust="spacingAndGlyphs"
text-anchor="middle" opacity="0">R4</text>
</g>
<path d="M37146 27427
L36959 27559
" />
<path d="M37146 27652
L36752 27652
L36752 27502
L36771 27465
L36790 27446
L36827 27427
L36884 27427
L36921 27446
L36940 27465
L36959 27502
L36959 27652
" />
<path d="M36884 27090
L37146 27090
" />
<path d="M36734 27184
L37015 27277
L37015 27034
" />
<g transform="rotate(-90 36338.6 27322.8)">
<text x="36338.6" y="27519.7"
textLength="845.426" font-size="524.934" lengthAdjust="spacingAndGlyphs"
text-anchor="middle" opacity="0">R3</text>
</g>
<path d="M36516 27388
L36329 27519
" />
<path d="M36516 27613
L36122 27613
L36122 27463
L36141 27425
L36160 27407
L36197 27388
L36254 27388
L36291 27407
L36310 27425
L36329 27463
L36329 27613
" />
<path d="M36122 27257
L36122 27013
L36272 27144
L36272 27088
L36291 27050
L36310 27032
L36347 27013
L36441 27013
L36479 27032
L36497 27050
L36516 27088
L36516 27200
L36497 27238
L36479 27257
" />
<g transform="rotate(-90 35826.8 27362.2)">
<text x="35826.8" y="27559.1"
textLength="845.426" font-size="524.934" lengthAdjust="spacingAndGlyphs"
text-anchor="middle" opacity="0">R2</text>
</g>
<path d="M36004 27427
L35817 27559
" />
<path d="M36004 27652
L35611 27652
L35611 27502
L35629 27465
L35648 27446
L35686 27427
L35742 27427
L35779 27446
L35798 27465
L35817 27502
L35817 27652
" />
<path d="M35648 27277
L35629 27259
L35611 27221
L35611 27127
L35629 27090
L35648 27071
L35686 27052
L35723 27052
L35779 27071
L36004 27296
L36004 27052
" />
<text x="37401.6" y="17874"
textLength="845.426" font-size="524.934" lengthAdjust="spacingAndGlyphs"
text-anchor="middle" opacity="0">R1</text>
<path d="M37335 17855
L37204 17667
" />
<path d="M37110 17855
L37110 17461
L37260 17461
L37298 17480
L37317 17499
L37335 17536
L37335 17592
L37317 17630
L37298 17649
L37260 17667
L37110 17667
" />
<path d="M37710 17855
L37485 17855
" />
<path d="M37598 17855
L37598 17461
L37560 17517
L37523 17555
L37485 17574
" />
<text x="41141.7" y="18818.9"
textLength="751.687" font-size="524.934" lengthAdjust="spacingAndGlyphs"
text-anchor="middle" opacity="0">J2</text>
<path d="M41010 18406
L41010 18687
L40991 18743
L40954 18781
L40898 18800
L40860 18800
" />
<path d="M41179 18443
L41197 18425
L41235 18406
L41329 18406
L41366 18425
L41385 18443
L41404 18481
L41404 18518
L41385 18575
L41160 18800
L41404 18800
" />
<text x="35157.5" y="18937"
textLength="751.687" font-size="524.934" lengthAdjust="spacingAndGlyphs"
text-anchor="middle" opacity="0">J1</text>
<path d="M35026 18524
L35026 18805
L35007 18862
L34970 18899
L34913 18918
L34876 18918
" />
<path d="M35419 18918
L35194 18918
" />
<path d="M35307 18918
L35307 18524
L35269 18580
L35232 18618
L35194 18637
" />
<g >
</g>
</g> 
</svg>
