<?xml version="1.0" standalone="no"?>
 <!DOCTYPE svg PUBLIC "-//W3C//DTD SVG 1.1//EN" 
 "http://www.w3.org/Graphics/SVG/1.1/DTD/svg11.dtd"> 
<svg
  xmlns:svg="http://www.w3.org/2000/svg"
  xmlns="http://www.w3.org/2000/svg"
  xmlns:xlink="http://www.w3.org/1999/xlink"
  version="1.1"
  width="29.700220cm" height="21.000720cm" viewBox="0 0 116930 82680">
<title>SVG Picture created as 7seg-B_Cu.svg date 2021/02/03 17:18:46 </title>
  <desc>Picture generated by PCBNEW </desc>
<g style="fill:#000000; fill-opacity:1;stroke:#000000; stroke-opacity:1;
stroke-linecap:round; stroke-linejoin:round;"
 transform="translate(0 0) scale(1 1)">
</g>
<g style="fill:#000000; fill-opacity:0.0; 
stroke:#000000; stroke-width:-0.000393701; stroke-opacity:1; 
stroke-linecap:round; stroke-linejoin:round;">
<g >
</g>
<g >
</g>
<g style="fill:#000000; fill-opacity:0.0; 
stroke:#000000; stroke-width:-0.000393701; stroke-opacity:1; 
stroke-linecap:round; stroke-linejoin:round;">
</g>
<g style="fill:#000000; fill-opacity:0.0; 
stroke:#000000; stroke-width:600; stroke-opacity:1; 
stroke-linecap:round; stroke-linejoin:round;">
<path d="M36228 24594
L36228 24988
" />
<path d="M37228 24594
L37228 24988
" />
<path d="M38228 24594
L38228 24988
" />
<path d="M39228 24594
L39228 24988
" />
<path d="M40228 24594
L40228 24988
" />
<path d="M40228 18594
L40228 18988
" />
<path d="M39228 18594
L39228 18988
" />
<path d="M38228 18594
L38228 18988
" />
<path d="M37228 18594
L37228 18988
" />
<path d="M36228 18594
L36228 18988
" />
</g>
<g >
</g>
<g >
</g>
<g >
</g>
<g >
</g>
<g >
</g>
<g >
</g>
<g >
</g>
<g >
</g>
<g >
</g>
<g >
</g>
<g style="fill:#000000; fill-opacity:0.0; 
stroke:#000000; stroke-width:600; stroke-opacity:1; 
stroke-linecap:round; stroke-linejoin:round;">
</g>
<g style="fill:#000000; fill-opacity:1.0; 
stroke:#000000; stroke-width:0; stroke-opacity:1; 
stroke-linecap:round; stroke-linejoin:round;">
<circle cx="40673.2" cy="23858.3" r="334.646" /> 
<circle cx="40673.2" cy="22858.3" r="334.646" /> 
<circle cx="40673.2" cy="21858.3" r="334.646" /> 
<circle cx="40673.2" cy="20858.3" r="334.646" /> 
<path style="fill:#000000; fill-opacity:1.0; 
stroke:#000000; stroke-width:0; stroke-opacity:1; 
stroke-linecap:round; stroke-linejoin:round;fill-rule:evenodd;"
d="M 40338.6,20192.9
40338.6,19523.6
41007.9,19523.6
41007.9,20192.9
Z" /> 
</g>
<g >
</g>
<g style="fill:#000000; fill-opacity:1.0; 
stroke:#000000; stroke-width:0; stroke-opacity:1; 
stroke-linecap:round; stroke-linejoin:round;">
<circle cx="35755.9" cy="23878" r="334.646" /> 
<circle cx="35755.9" cy="22878" r="334.646" /> 
<circle cx="35755.9" cy="21878" r="334.646" /> 
<circle cx="35755.9" cy="20878" r="334.646" /> 
<path style="fill:#000000; fill-opacity:1.0; 
stroke:#000000; stroke-width:0; stroke-opacity:1; 
stroke-linecap:round; stroke-linejoin:round;fill-rule:evenodd;"
d="M 35421.3,20212.6
35421.3,19543.3
36090.6,19543.3
36090.6,20212.6
Z" /> 
</g>
<g >
</g>
<g style="fill:#000000; fill-opacity:1.0; 
stroke:#000000; stroke-width:0; stroke-opacity:1; 
stroke-linecap:round; stroke-linejoin:round;">
<circle cx="37716.5" cy="21456.7" r="157.48" /> 
</g>
<g style="fill:#000000; fill-opacity:1.0; 
stroke:#000000; stroke-width:39.3701; stroke-opacity:1; 
stroke-linecap:round; stroke-linejoin:round;">
</g>
<g style="fill:#000000; fill-opacity:1.0; 
stroke:#000000; stroke-width:0; stroke-opacity:1; 
stroke-linecap:round; stroke-linejoin:round;">
<circle cx="38425.2" cy="21456.7" r="157.48" /> 
</g>
<g style="fill:#000000; fill-opacity:1.0; 
stroke:#000000; stroke-width:39.3701; stroke-opacity:1; 
stroke-linecap:round; stroke-linejoin:round;">
</g>
<g style="fill:#000000; fill-opacity:1.0; 
stroke:#000000; stroke-width:0; stroke-opacity:1; 
stroke-linecap:round; stroke-linejoin:round;">
<circle cx="38189" cy="19960.6" r="157.48" /> 
</g>
<g style="fill:#000000; fill-opacity:1.0; 
stroke:#000000; stroke-width:39.3701; stroke-opacity:1; 
stroke-linecap:round; stroke-linejoin:round;">
</g>
<g style="fill:#000000; fill-opacity:1.0; 
stroke:#000000; stroke-width:0; stroke-opacity:1; 
stroke-linecap:round; stroke-linejoin:round;">
<circle cx="39566.9" cy="21771.7" r="157.48" /> 
</g>
<g style="fill:#000000; fill-opacity:1.0; 
stroke:#000000; stroke-width:39.3701; stroke-opacity:1; 
stroke-linecap:round; stroke-linejoin:round;">
</g>
<g style="fill:#000000; fill-opacity:1.0; 
stroke:#000000; stroke-width:0; stroke-opacity:1; 
stroke-linecap:round; stroke-linejoin:round;">
<circle cx="39547.2" cy="22657.5" r="157.48" /> 
</g>
<g style="fill:#000000; fill-opacity:1.0; 
stroke:#000000; stroke-width:39.3701; stroke-opacity:1; 
stroke-linecap:round; stroke-linejoin:round;">
</g>
<g style="fill:#000000; fill-opacity:1.0; 
stroke:#000000; stroke-width:0; stroke-opacity:1; 
stroke-linecap:round; stroke-linejoin:round;">
<circle cx="39074.8" cy="22274" r="157.48" /> 
</g>
<g style="fill:#000000; fill-opacity:1.0; 
stroke:#000000; stroke-width:39.3701; stroke-opacity:1; 
stroke-linecap:round; stroke-linejoin:round;">
</g>
<g style="fill:#000000; fill-opacity:1.0; 
stroke:#000000; stroke-width:0; stroke-opacity:1; 
stroke-linecap:round; stroke-linejoin:round;">
<circle cx="39921.3" cy="20200.8" r="157.48" /> 
</g>
<g style="fill:#000000; fill-opacity:1.0; 
stroke:#000000; stroke-width:39.3701; stroke-opacity:1; 
stroke-linecap:round; stroke-linejoin:round;">
</g>
<g style="fill:#000000; fill-opacity:1.0; 
stroke:#000000; stroke-width:0; stroke-opacity:1; 
stroke-linecap:round; stroke-linejoin:round;">
<circle cx="37173.2" cy="21262.2" r="157.48" /> 
</g>
<g style="fill:#000000; fill-opacity:1.0; 
stroke:#000000; stroke-width:39.3701; stroke-opacity:1; 
stroke-linecap:round; stroke-linejoin:round;">
</g>
<g style="fill:#000000; fill-opacity:1.0; 
stroke:#000000; stroke-width:0; stroke-opacity:1; 
stroke-linecap:round; stroke-linejoin:round;">
<circle cx="37007.3" cy="20692.7" r="157.48" /> 
</g>
<g style="fill:#000000; fill-opacity:1.0; 
stroke:#000000; stroke-width:39.3701; stroke-opacity:1; 
stroke-linecap:round; stroke-linejoin:round;">
</g>
<g style="fill:#000000; fill-opacity:1.0; 
stroke:#000000; stroke-width:0; stroke-opacity:1; 
stroke-linecap:round; stroke-linejoin:round;">
<circle cx="36811" cy="19842.5" r="157.48" /> 
</g>
<g style="fill:#000000; fill-opacity:1.0; 
stroke:#000000; stroke-width:39.3701; stroke-opacity:1; 
stroke-linecap:round; stroke-linejoin:round;">
</g>
<g style="fill:#000000; fill-opacity:1.0; 
stroke:#000000; stroke-width:0; stroke-opacity:1; 
stroke-linecap:round; stroke-linejoin:round;">
<circle cx="36720.5" cy="20392.1" r="157.48" /> 
</g>
<g style="fill:#000000; fill-opacity:1.0; 
stroke:#000000; stroke-width:39.3701; stroke-opacity:1; 
stroke-linecap:round; stroke-linejoin:round;">
</g>
<g style="fill:#000000; fill-opacity:1.0; 
stroke:#000000; stroke-width:0; stroke-opacity:1; 
stroke-linecap:round; stroke-linejoin:round;">
<circle cx="37328.8" cy="24025.1" r="157.48" /> 
</g>
<g style="fill:#000000; fill-opacity:1.0; 
stroke:#000000; stroke-width:39.3701; stroke-opacity:1; 
stroke-linecap:round; stroke-linejoin:round;">
</g>
<g style="fill:#000000; fill-opacity:1.0; 
stroke:#000000; stroke-width:0; stroke-opacity:1; 
stroke-linecap:round; stroke-linejoin:round;">
<circle cx="37923" cy="23878" r="157.48" /> 
</g>
<g style="fill:#000000; fill-opacity:1.0; 
stroke:#000000; stroke-width:39.3701; stroke-opacity:1; 
stroke-linecap:round; stroke-linejoin:round;">
</g>
<g style="fill:#000000; fill-opacity:1.0; 
stroke:#000000; stroke-width:0; stroke-opacity:1; 
stroke-linecap:round; stroke-linejoin:round;">
<circle cx="40080.6" cy="21669.4" r="157.48" /> 
</g>
<g style="fill:#000000; fill-opacity:1.0; 
stroke:#000000; stroke-width:39.3701; stroke-opacity:1; 
stroke-linecap:round; stroke-linejoin:round;">
</g>
<g >
</g>
<g style="fill:#000000; fill-opacity:1.0; 
stroke:#000000; stroke-width:39.3701; stroke-opacity:1; 
stroke-linecap:round; stroke-linejoin:round;">
</g>
<g style="fill:#000000; fill-opacity:1.0; 
stroke:#000000; stroke-width:393.701; stroke-opacity:1; 
stroke-linecap:round; stroke-linejoin:round;">
</g>
<g style="fill:#000000; fill-opacity:0.0; 
stroke:#000000; stroke-width:393.701; stroke-opacity:1; 
stroke-linecap:round; stroke-linejoin:round;">
<path d="M38425 21535
L38442 21553
" />
<path d="M38425 21456
L38425 21535
" />
<path d="M38680 21553
L37992 20865
" />
<path d="M37992 20865
L37795 21062
" />
<path d="M37637 21259
L37637 21299
" />
<path d="M37795 21062
L37795 21102
" />
<path d="M38442 21553
L38680 21553
" />
<path d="M37795 21102
L37637 21259
" />
<path d="M37606 21330
L37606 21470
" />
<path d="M37637 21299
L37606 21330
" />
<path d="M37606 21470
L37689 21553
" />
<path d="M37795 21141
L38110 21456
" />
<path d="M37795 21102
L37795 21141
" />
</g>
<g style="fill:#000000; fill-opacity:0.0; 
stroke:#000000; stroke-width:196.85; stroke-opacity:1; 
stroke-linecap:round; stroke-linejoin:round;">
<path d="M38110 21456
L37716 21456
" />
<path d="M38425 21456
L38110 21456
" />
</g>
<g style="fill:#000000; fill-opacity:0.0; 
stroke:#000000; stroke-width:393.701; stroke-opacity:1; 
stroke-linecap:round; stroke-linejoin:round;">
<path d="M38110 21496
L38053 21553
" />
<path d="M38110 21456
L38110 21496
" />
<path d="M37952 21456
L37856 21553
" />
<path d="M38110 21456
L37952 21456
" />
<path d="M37856 21553
L37523 21553
" />
<path d="M37523 21553
L38543 21553
" />
</g>
<g style="fill:#000000; fill-opacity:0.0; 
stroke:#000000; stroke-width:295.276; stroke-opacity:1; 
stroke-linecap:round; stroke-linejoin:round;">
<path d="M37523 21553
L37450 21553
" />
</g>
<g style="fill:#000000; fill-opacity:0.0; 
stroke:#000000; stroke-width:196.85; stroke-opacity:1; 
stroke-linecap:round; stroke-linejoin:round;">
<path d="M37406 21596
L37406 21651
" />
<path d="M37450 21553
L37406 21596
" />
<path d="M37406 21651
L36232 21651
" />
<path d="M36232 21586
L36134 21488
" />
<path d="M36232 21651
L36232 21586
" />
<path d="M36134 21488
L36904 21488
" />
<path d="M37018 21602
L37401 21602
" />
<path d="M36904 21488
L37018 21602
" />
</g>
<g style="fill:#000000; fill-opacity:0.0; 
stroke:#000000; stroke-width:393.701; stroke-opacity:1; 
stroke-linecap:round; stroke-linejoin:round;">
<path d="M38188 20393
L39566 21771
" />
<path d="M38188 19960
L38188 20393
" />
<path d="M40338 23448
L40338 23523
" />
<path d="M39547 22657
L40338 23448
" />
<path d="M40338 23448
L40338 23795
" />
</g>
<g style="fill:#000000; fill-opacity:0.0; 
stroke:#000000; stroke-width:196.85; stroke-opacity:1; 
stroke-linecap:round; stroke-linejoin:round;">
<path d="M40338 23795
L40437 23795
" />
</g>
<g style="fill:#000000; fill-opacity:0.0; 
stroke:#000000; stroke-width:393.701; stroke-opacity:1; 
stroke-linecap:round; stroke-linejoin:round;">
<path d="M39547 22657
L39251 22952
" />
<path d="M39251 22952
L38110 22952
" />
</g>
<g style="fill:#000000; fill-opacity:0.0; 
stroke:#000000; stroke-width:787.402; stroke-opacity:1; 
stroke-linecap:round; stroke-linejoin:round;">
<path d="M36287 24174
L36287 24791
" />
<path d="M37509 22952
L36287 24174
" />
<path d="M38110 22952
L37509 22952
" />
</g>
<g style="fill:#000000; fill-opacity:0.0; 
stroke:#000000; stroke-width:98.4252; stroke-opacity:1; 
stroke-linecap:round; stroke-linejoin:round;">
<path d="M40500 22685
L40673 22858
" />
<path d="M40492 22677
L40673 22858
" />
<path d="M40088 22274
L40486 22671
" />
<path d="M39074 22274
L40088 22274
" />
<path d="M39074 22274
L38855 22055
" />
<path d="M38855 22055
L36370 22055
" />
<path d="M36370 22055
L35944 22480
" />
<path d="M35944 22688
L35942 22690
" />
<path d="M35944 22480
L35944 22688
" />
<path d="M40673 21858
L40673 21830
" />
<path d="M39914 21099
L40673 21858
" />
<path d="M35755 21877
L39101 21877
" />
<path d="M40435 22096
L40486 22045
" />
<path d="M39319 22096
L40435 22096
" />
<path d="M39101 21877
L39319 22096
" />
<path d="M39914 20347
L39881 20314
" />
<path d="M39914 21099
L39914 20347
" />
<path d="M35771 20862
L35755 20877
" />
<path d="M36140 21262
L35942 21064
" />
<path d="M37173 21262
L36140 21262
" />
<path d="M36992 20677
L37007 20692
" />
</g>
<g style="fill:#000000; fill-opacity:0.0; 
stroke:#000000; stroke-width:196.85; stroke-opacity:1; 
stroke-linecap:round; stroke-linejoin:round;">
<path d="M38498 19465
L39296 20264
" />
<path d="M37939 19465
L38498 19465
" />
<path d="M37665 19739
L37939 19465
" />
<path d="M37665 20034
L37665 19739
" />
<path d="M37007 20692
L37665 20034
" />
<path d="M36559 20726
L35992 20159
" />
<path d="M36881 20726
L36559 20726
" />
<path d="M36915 20692
L36881 20726
" />
<path d="M37007 20692
L36915 20692
" />
</g>
<g style="fill:#000000; fill-opacity:0.0; 
stroke:#000000; stroke-width:590.551; stroke-opacity:1; 
stroke-linecap:round; stroke-linejoin:round;">
<path d="M36464 19496
L36811 19842
" />
<path d="M36464 19027
L36464 19496
" />
<path d="M36228 18791
L36464 19027
" />
</g>
<g style="fill:#000000; fill-opacity:0.0; 
stroke:#000000; stroke-width:98.4252; stroke-opacity:1; 
stroke-linecap:round; stroke-linejoin:round;">
<path d="M36612 20340
L36788 20340
" />
<path d="M37438 19001
L37228 18791
" />
<path d="M37438 19940
L37438 19001
" />
<path d="M36987 20392
L37438 19940
" />
<path d="M36720 20392
L36987 20392
" />
</g>
<g style="fill:#000000; fill-opacity:0.0; 
stroke:#000000; stroke-width:196.85; stroke-opacity:1; 
stroke-linecap:round; stroke-linejoin:round;">
<path d="M37795 23543
L38346 23543
" />
<path d="M38346 23543
L38543 23346
" />
<path d="M38543 23346
L39360 23346
" />
<path d="M40228 24213
L40228 24791
" />
<path d="M39360 23346
L40228 24213
" />
<path d="M37328 24025
L37328 23940
" />
<path d="M37328 23940
L37701 23567
" />
</g>
<g style="fill:#000000; fill-opacity:0.0; 
stroke:#000000; stroke-width:295.276; stroke-opacity:1; 
stroke-linecap:round; stroke-linejoin:round;">
<path d="M37922 23877
L38838 23877
" />
<path d="M39228 24267
L39228 24791
" />
<path d="M38838 23877
L39228 24267
" />
</g>
<g style="fill:#000000; fill-opacity:0.0; 
stroke:#000000; stroke-width:98.4252; stroke-opacity:1; 
stroke-linecap:round; stroke-linejoin:round;">
<path d="M39628 21217
L39628 19521
" />
<path d="M40080 21669
L39628 21217
" />
<path d="M39228 19120
L39228 18791
" />
<path d="M39628 19521
L39228 19120
" />
</g>
<g >
</g>
<g style="fill:#000000; fill-opacity:0.0; 
stroke:#000000; stroke-width:98.4252; stroke-opacity:1; 
stroke-linecap:round; stroke-linejoin:round;">
<g >
</g>
<g style="fill:#000000; fill-opacity:1.0; 
stroke:#000000; stroke-width:100; stroke-opacity:1; 
stroke-linecap:round; stroke-linejoin:round;">
<path style="fill:#000000; fill-opacity:1.0; 
stroke:#000000; stroke-width:100; stroke-opacity:1; 
stroke-linecap:round; stroke-linejoin:round;fill-rule:evenodd;"
d="M 36311.5,20340.9
36313,20355.6
36313,20432.3
36328.7,20511
36359.4,20585.1
36404,20651.9
36460.7,20708.6
36527.5,20753.2
36601.6,20783.9
36619.8,20787.6
36677.1,20873.5
36647.3,20963
36335.1,20963
36340.6,20935.5
36340.6,20820.4
36318.1,20707.4
36274,20601
36210,20505.3
36158.1,20453.4
36186.7,20444.7
36230.1,20421.5
36268.2,20390.2
36299.4,20352.2
36312.9,20326.9
Z" /> 
</g>
</g>
<g style="fill:#000000; fill-opacity:1.0; 
stroke:#000000; stroke-width:100; stroke-opacity:1; 
stroke-linecap:round; stroke-linejoin:round;">
<g >
<path style="fill:#000000; fill-opacity:1.0; 
stroke:#000000; stroke-width:100; stroke-opacity:1; 
stroke-linecap:round; stroke-linejoin:round;fill-rule:evenodd;"
d="M 38994.8,19487
39016.9,19498.8
39120.5,19530.2
39225.3,19540.5
39329.7,19645
39329.7,20902.5
38635.8,20208.6
38635.8,19938.7
38629.4,19873
38603.8,19788.8
38562.3,19711.2
38506.5,19643.1
38438.4,19587.3
38360.8,19545.8
38316,19532.2
38336.2,19530.2
38439.8,19498.8
38488.9,19472.5
Z" /> 
</g>
</g>
<g style="fill:#000000; fill-opacity:1.0; 
stroke:#000000; stroke-width:100; stroke-opacity:1; 
stroke-linecap:round; stroke-linejoin:round;">
<g >
<path style="fill:#000000; fill-opacity:1.0; 
stroke:#000000; stroke-width:100; stroke-opacity:1; 
stroke-linecap:round; stroke-linejoin:round;fill-rule:evenodd;"
d="M 38683,22392.9
38713.7,22467
38758.3,22533.8
38815,22590.5
38881.8,22635.1
38955.9,22665.8
39034.7,22681.5
39114.9,22681.5
39193.7,22665.8
39267.8,22635.1
39334.6,22590.5
39351.9,22573.2
39383.6,22573.2
39395.6,22582
39364,22834.4
38748.3,22998
38560.4,22998
38543.3,22996.3
38526.2,22998
38526.2,22998
38475,23003.1
38409.3,23023
38348.8,23055.3
38295.7,23098.9
38284.8,23112.2
38272.5,23124.5
38007.8,23194.9
37778.2,23194.9
37727,23199.9
37661.3,23219.8
37657.5,23221.9
37633.2,23224.3
37567.5,23244.2
37507,23276.6
37467.3,23309.2
37427.3,23349.2
36351.2,23635.2
36385.6,22462.7
36494,22354.3
38675.3,22354.3
Z" /> 
</g>
</g>
<g style="fill:#000000; fill-opacity:1.0; 
stroke:#000000; stroke-width:100; stroke-opacity:1; 
stroke-linecap:round; stroke-linejoin:round;">
<g >
<path style="fill:#000000; fill-opacity:1.0; 
stroke:#000000; stroke-width:100; stroke-opacity:1; 
stroke-linecap:round; stroke-linejoin:round;fill-rule:evenodd;"
d="M 36717.5,22600.5
36310.8,23695.7
36305.8,23679.5
36256.6,23576
36188,23484.1
36102.9,23407.4
36065,23384.8
36065,23374.6
36128.6,23332.1
36210,23250.6
36274,23154.9
36318.1,23048.5
36340.6,22935.5
36340.6,22820.4
36318.1,22707.4
36274,22601
36263.3,22585
36494,22354.3
36603.9,22354.3
Z" /> 
</g>
</g>
<g style="fill:#000000; fill-opacity:1.0; 
stroke:#000000; stroke-width:100; stroke-opacity:1; 
stroke-linecap:round; stroke-linejoin:round;">
<g >
<path style="fill:#000000; fill-opacity:1.0; 
stroke:#000000; stroke-width:100; stroke-opacity:1; 
stroke-linecap:round; stroke-linejoin:round;fill-rule:evenodd;"
d="M 40217.7,23495.8
40172.6,23556.3
40137.4,23630.3
39619.3,23112.2
39608.4,23098.9
39555.3,23055.3
39494.8,23023
39429.1,23003.1
39377.9,22998
39377.9,22998
39360.8,22996.3
39343.7,22998
39315.1,22998
39363.7,22884.6
39739.4,22884.6
Z" /> 
</g>
</g>
<g style="fill:#000000; fill-opacity:1.0; 
stroke:#000000; stroke-width:100; stroke-opacity:1; 
stroke-linecap:round; stroke-linejoin:round;">
<g >
<path style="fill:#000000; fill-opacity:1.0; 
stroke:#000000; stroke-width:100; stroke-opacity:1; 
stroke-linecap:round; stroke-linejoin:round;fill-rule:evenodd;"
d="M 40105.8,22714
40088.6,22800.7
40088.6,22915.9
40111.1,23028.8
40155.1,23135.2
40219.1,23231
40300.5,23312.4
40364.2,23354.9
40364.2,23365.1
40326.2,23387.7
40266.6,23441.5
39295.9,22765
39263.9,22636.8
39267.8,22635.1
39334.6,22590.5
39351.9,22573.2
39965,22573.2
Z" /> 
</g>
</g>
<g style="fill:#000000; fill-opacity:1.0; 
stroke:#000000; stroke-width:100; stroke-opacity:1; 
stroke-linecap:round; stroke-linejoin:round;">
<g >
<path style="fill:#000000; fill-opacity:1.0; 
stroke:#000000; stroke-width:100; stroke-opacity:1; 
stroke-linecap:round; stroke-linejoin:round;fill-rule:evenodd;"
d="M 37742.1,19938.7
37742.1,20371.8
37740,20393.7
37742.1,20415.7
37742.1,20415.7
37748.6,20481.3
37750.7,20488.2
37743.2,20492.2
37692.3,20534.1
37692.2,20534.1
37675.2,20548.1
37661.2,20565.1
37494.8,20731.5
37477.8,20745.5
37421.9,20813.5
37387.2,20878.5
37365.1,20900.6
37292.1,20870.4
37213.4,20854.7
37133.1,20854.7
37054.4,20870.4
36980.2,20901.1
36913.5,20945.7
36896.2,20963
36657.7,20963
37014.4,20690.2
37046.4,20687
37102.8,20669.9
37154.8,20642.1
37200.3,20604.7
37209.7,20593.3
37640.2,20162.8
37651.6,20153.5
37689,20107.9
37716.7,20055.9
37733.9,19999.5
37738.2,19955.6
37738.2,19955.6
37739.6,19940.9
37738.2,19926.2
37738.2,19912.2
37745.6,19903.5
Z" /> 
</g>
</g>
<g style="fill:#000000; fill-opacity:1.0; 
stroke:#000000; stroke-width:100; stroke-opacity:1; 
stroke-linecap:round; stroke-linejoin:round;">
<g >
<path style="fill:#000000; fill-opacity:1.0; 
stroke:#000000; stroke-width:100; stroke-opacity:1; 
stroke-linecap:round; stroke-linejoin:round;fill-rule:evenodd;"
d="M 36311.5,20340.9
36313,20355.6
36313,20432.3
36328.7,20511
36358.4,20582.9
36350.2,20588.3
36342.6,20594.5
36338,20599.9
36296.5,20655.2
36274,20601
36210,20505.3
36158.1,20453.4
36186.7,20444.7
36230.1,20421.5
36268.2,20390.2
36299.4,20352.2
36312.9,20326.9
Z" /> 
</g>
</g>
<g style="fill:#000000; fill-opacity:1.0; 
stroke:#000000; stroke-width:100; stroke-opacity:1; 
stroke-linecap:round; stroke-linejoin:round;">
<g >
<path style="fill:#000000; fill-opacity:1.0; 
stroke:#000000; stroke-width:100; stroke-opacity:1; 
stroke-linecap:round; stroke-linejoin:round;fill-rule:evenodd;"
d="M 40088.6,22915.9
40111.1,23028.8
40155.1,23135.2
40219.1,23231
40300.5,23312.4
40364.2,23354.9
40364.2,23365.1
40326.2,23387.7
40241.1,23464.5
40172.6,23556.3
40137.4,23630.3
39619.3,23112.2
39608.4,23098.9
39555.3,23055.3
39494.8,23023
39429.1,23003.1
39377.9,22998
39377.9,22998
39360.8,22996.3
39343.7,22998
39107.1,22998
39125.8,22961.8
40088.6,22912.5
Z" /> 
</g>
</g>
</g> 
</svg>
