<?xml version="1.0" standalone="no"?>
 <!DOCTYPE svg PUBLIC "-//W3C//DTD SVG 1.1//EN" 
 "http://www.w3.org/Graphics/SVG/1.1/DTD/svg11.dtd"> 
<svg
  xmlns:svg="http://www.w3.org/2000/svg"
  xmlns="http://www.w3.org/2000/svg"
  xmlns:xlink="http://www.w3.org/1999/xlink"
  version="1.1"
  width="29.700220cm" height="21.000720cm" viewBox="0 0 116930 82680">
<title>SVG Picture created as 7seg-F_Cu.svg date 2021/02/03 17:18:45 </title>
  <desc>Picture generated by PCBNEW </desc>
<g style="fill:#000000; fill-opacity:1;stroke:#000000; stroke-opacity:1;
stroke-linecap:round; stroke-linejoin:round;"
 transform="translate(0 0) scale(1 1)">
</g>
<g style="fill:#000000; fill-opacity:0.0; 
stroke:#000000; stroke-width:-0.000393701; stroke-opacity:1; 
stroke-linecap:round; stroke-linejoin:round;">
<g >
</g>
<g style="fill:#000000; fill-opacity:0.0; 
stroke:#000000; stroke-width:0; stroke-opacity:1; 
stroke-linecap:round; stroke-linejoin:round;">
</g>
<g style="fill:#000000; fill-opacity:1.0; 
stroke:#000000; stroke-width:0; stroke-opacity:1; 
stroke-linecap:round; stroke-linejoin:round;">
<path style="fill:#000000; fill-opacity:1.0; 
stroke:#000000; stroke-width:0; stroke-opacity:1; 
stroke-linecap:round; stroke-linejoin:round;fill-rule:evenodd;"
d="M 39846.5,19964.6
39649.6,19964.6
39649.6,19728.3
39846.5,19728.3
Z" /> 
<path style="fill:#000000; fill-opacity:1.0; 
stroke:#000000; stroke-width:0; stroke-opacity:1; 
stroke-linecap:round; stroke-linejoin:round;fill-rule:evenodd;"
d="M 39846.5,19531.5
39649.6,19531.5
39649.6,19295.3
39846.5,19295.3
Z" /> 
</g>
<g >
</g>
<g style="fill:#000000; fill-opacity:1.0; 
stroke:#000000; stroke-width:0; stroke-opacity:1; 
stroke-linecap:round; stroke-linejoin:round;">
</g>
<g style="fill:#000000; fill-opacity:1.0; 
stroke:#000000; stroke-width:600; stroke-opacity:1; 
stroke-linecap:round; stroke-linejoin:round;">
</g>
<g style="fill:#000000; fill-opacity:0.0; 
stroke:#000000; stroke-width:600; stroke-opacity:1; 
stroke-linecap:round; stroke-linejoin:round;">
<path d="M36228 24594
L36228 24988
" />
<path d="M37228 24594
L37228 24988
" />
<path d="M38228 24594
L38228 24988
" />
<path d="M39228 24594
L39228 24988
" />
<path d="M40228 24594
L40228 24988
" />
<path d="M40228 18594
L40228 18988
" />
<path d="M39228 18594
L39228 18988
" />
<path d="M38228 18594
L38228 18988
" />
<path d="M37228 18594
L37228 18988
" />
<path d="M36228 18594
L36228 18988
" />
</g>
<g >
</g>
<g style="fill:#000000; fill-opacity:0.0; 
stroke:#000000; stroke-width:600; stroke-opacity:1; 
stroke-linecap:round; stroke-linejoin:round;">
</g>
<g style="fill:#000000; fill-opacity:0.0; 
stroke:#000000; stroke-width:0; stroke-opacity:1; 
stroke-linecap:round; stroke-linejoin:round;">
</g>
<g style="fill:#000000; fill-opacity:1.0; 
stroke:#000000; stroke-width:0; stroke-opacity:1; 
stroke-linecap:round; stroke-linejoin:round;">
<path style="fill:#000000; fill-opacity:1.0; 
stroke:#000000; stroke-width:0; stroke-opacity:1; 
stroke-linecap:round; stroke-linejoin:round;fill-rule:evenodd;"
d="M 37313,22986.2
37135.8,22986.2
37135.8,22572.8
37313,22572.8
Z" /> 
<path style="fill:#000000; fill-opacity:1.0; 
stroke:#000000; stroke-width:0; stroke-opacity:1; 
stroke-linecap:round; stroke-linejoin:round;fill-rule:evenodd;"
d="M 37568.9,22986.2
37391.7,22986.2
37391.7,22572.8
37568.9,22572.8
Z" /> 
<path style="fill:#000000; fill-opacity:1.0; 
stroke:#000000; stroke-width:0; stroke-opacity:1; 
stroke-linecap:round; stroke-linejoin:round;fill-rule:evenodd;"
d="M 37824.8,22986.2
37647.6,22986.2
37647.6,22572.8
37824.8,22572.8
Z" /> 
<path style="fill:#000000; fill-opacity:1.0; 
stroke:#000000; stroke-width:0; stroke-opacity:1; 
stroke-linecap:round; stroke-linejoin:round;fill-rule:evenodd;"
d="M 38080.7,22986.2
37903.5,22986.2
37903.5,22572.8
38080.7,22572.8
Z" /> 
<path style="fill:#000000; fill-opacity:1.0; 
stroke:#000000; stroke-width:0; stroke-opacity:1; 
stroke-linecap:round; stroke-linejoin:round;fill-rule:evenodd;"
d="M 38336.6,22986.2
38159.4,22986.2
38159.4,22572.8
38336.6,22572.8
Z" /> 
<path style="fill:#000000; fill-opacity:1.0; 
stroke:#000000; stroke-width:0; stroke-opacity:1; 
stroke-linecap:round; stroke-linejoin:round;fill-rule:evenodd;"
d="M 38592.5,22986.2
38415.4,22986.2
38415.4,22572.8
38592.5,22572.8
Z" /> 
<path style="fill:#000000; fill-opacity:1.0; 
stroke:#000000; stroke-width:0; stroke-opacity:1; 
stroke-linecap:round; stroke-linejoin:round;fill-rule:evenodd;"
d="M 38848.4,22986.2
38671.3,22986.2
38671.3,22572.8
38848.4,22572.8
Z" /> 
<path style="fill:#000000; fill-opacity:1.0; 
stroke:#000000; stroke-width:0; stroke-opacity:1; 
stroke-linecap:round; stroke-linejoin:round;fill-rule:evenodd;"
d="M 39104.3,22986.2
38927.2,22986.2
38927.2,22572.8
39104.3,22572.8
Z" /> 
<path style="fill:#000000; fill-opacity:1.0; 
stroke:#000000; stroke-width:0; stroke-opacity:1; 
stroke-linecap:round; stroke-linejoin:round;fill-rule:evenodd;"
d="M 39104.3,20801.2
38927.2,20801.2
38927.2,20387.8
39104.3,20387.8
Z" /> 
<path style="fill:#000000; fill-opacity:1.0; 
stroke:#000000; stroke-width:0; stroke-opacity:1; 
stroke-linecap:round; stroke-linejoin:round;fill-rule:evenodd;"
d="M 38848.4,20801.2
38671.3,20801.2
38671.3,20387.8
38848.4,20387.8
Z" /> 
<path style="fill:#000000; fill-opacity:1.0; 
stroke:#000000; stroke-width:0; stroke-opacity:1; 
stroke-linecap:round; stroke-linejoin:round;fill-rule:evenodd;"
d="M 38592.5,20801.2
38415.4,20801.2
38415.4,20387.8
38592.5,20387.8
Z" /> 
<path style="fill:#000000; fill-opacity:1.0; 
stroke:#000000; stroke-width:0; stroke-opacity:1; 
stroke-linecap:round; stroke-linejoin:round;fill-rule:evenodd;"
d="M 38336.6,20801.2
38159.4,20801.2
38159.4,20387.8
38336.6,20387.8
Z" /> 
<path style="fill:#000000; fill-opacity:1.0; 
stroke:#000000; stroke-width:0; stroke-opacity:1; 
stroke-linecap:round; stroke-linejoin:round;fill-rule:evenodd;"
d="M 38080.7,20801.2
37903.5,20801.2
37903.5,20387.8
38080.7,20387.8
Z" /> 
<path style="fill:#000000; fill-opacity:1.0; 
stroke:#000000; stroke-width:0; stroke-opacity:1; 
stroke-linecap:round; stroke-linejoin:round;fill-rule:evenodd;"
d="M 37824.8,20801.2
37647.6,20801.2
37647.6,20387.8
37824.8,20387.8
Z" /> 
<path style="fill:#000000; fill-opacity:1.0; 
stroke:#000000; stroke-width:0; stroke-opacity:1; 
stroke-linecap:round; stroke-linejoin:round;fill-rule:evenodd;"
d="M 37568.9,20801.2
37391.7,20801.2
37391.7,20387.8
37568.9,20387.8
Z" /> 
<path style="fill:#000000; fill-opacity:1.0; 
stroke:#000000; stroke-width:0; stroke-opacity:1; 
stroke-linecap:round; stroke-linejoin:round;fill-rule:evenodd;"
d="M 37313,20801.2
37135.8,20801.2
37135.8,20387.8
37313,20387.8
Z" /> 
<path style="fill:#000000; fill-opacity:1.0; 
stroke:#000000; stroke-width:0; stroke-opacity:1; 
stroke-linecap:round; stroke-linejoin:round;fill-rule:evenodd;"
d="M 38824.8,21687
38472.4,21687
38472.4,21108.3
38824.8,21108.3
Z" /> 
<path style="fill:#000000; fill-opacity:1.0; 
stroke:#000000; stroke-width:0; stroke-opacity:1; 
stroke-linecap:round; stroke-linejoin:round;fill-rule:evenodd;"
d="M 38472.4,21687
38120.1,21687
38120.1,21108.3
38472.4,21108.3
Z" /> 
<path style="fill:#000000; fill-opacity:1.0; 
stroke:#000000; stroke-width:0; stroke-opacity:1; 
stroke-linecap:round; stroke-linejoin:round;fill-rule:evenodd;"
d="M 38120.1,21687
37767.7,21687
37767.7,21108.3
38120.1,21108.3
Z" /> 
<path style="fill:#000000; fill-opacity:1.0; 
stroke:#000000; stroke-width:0; stroke-opacity:1; 
stroke-linecap:round; stroke-linejoin:round;fill-rule:evenodd;"
d="M 37767.7,21687
37415.4,21687
37415.4,21108.3
37767.7,21108.3
Z" /> 
<path style="fill:#000000; fill-opacity:1.0; 
stroke:#000000; stroke-width:0; stroke-opacity:1; 
stroke-linecap:round; stroke-linejoin:round;fill-rule:evenodd;"
d="M 38824.8,22265.7
38472.4,22265.7
38472.4,21687
38824.8,21687
Z" /> 
<path style="fill:#000000; fill-opacity:1.0; 
stroke:#000000; stroke-width:0; stroke-opacity:1; 
stroke-linecap:round; stroke-linejoin:round;fill-rule:evenodd;"
d="M 38472.4,22265.7
38120.1,22265.7
38120.1,21687
38472.4,21687
Z" /> 
<path style="fill:#000000; fill-opacity:1.0; 
stroke:#000000; stroke-width:0; stroke-opacity:1; 
stroke-linecap:round; stroke-linejoin:round;fill-rule:evenodd;"
d="M 38120.1,22265.7
37767.7,22265.7
37767.7,21687
38120.1,21687
Z" /> 
<path style="fill:#000000; fill-opacity:1.0; 
stroke:#000000; stroke-width:0; stroke-opacity:1; 
stroke-linecap:round; stroke-linejoin:round;fill-rule:evenodd;"
d="M 37767.7,22265.7
37415.4,22265.7
37415.4,21687
37767.7,21687
Z" /> 
</g>
<g >
</g>
<g style="fill:#000000; fill-opacity:1.0; 
stroke:#000000; stroke-width:0; stroke-opacity:1; 
stroke-linecap:round; stroke-linejoin:round;">
<path style="fill:#000000; fill-opacity:1.0; 
stroke:#000000; stroke-width:0; stroke-opacity:1; 
stroke-linecap:round; stroke-linejoin:round;fill-rule:evenodd;"
d="M 39009.8,23470.9
38840.6,23470.9
38840.6,23360.6
39009.8,23360.6
Z" /> 
<path style="fill:#000000; fill-opacity:1.0; 
stroke:#000000; stroke-width:0; stroke-opacity:1; 
stroke-linecap:round; stroke-linejoin:round;fill-rule:evenodd;"
d="M 39009.8,23266.1
38840.6,23266.1
38840.6,23155.9
39009.8,23155.9
Z" /> 
</g>
<g >
</g>
<g style="fill:#000000; fill-opacity:1.0; 
stroke:#000000; stroke-width:0; stroke-opacity:1; 
stroke-linecap:round; stroke-linejoin:round;">
<path style="fill:#000000; fill-opacity:1.0; 
stroke:#000000; stroke-width:0; stroke-opacity:1; 
stroke-linecap:round; stroke-linejoin:round;fill-rule:evenodd;"
d="M 38694.9,23470.9
38525.6,23470.9
38525.6,23360.6
38694.9,23360.6
Z" /> 
<path style="fill:#000000; fill-opacity:1.0; 
stroke:#000000; stroke-width:0; stroke-opacity:1; 
stroke-linecap:round; stroke-linejoin:round;fill-rule:evenodd;"
d="M 38694.9,23266.1
38525.6,23266.1
38525.6,23155.9
38694.9,23155.9
Z" /> 
</g>
<g >
</g>
<g style="fill:#000000; fill-opacity:1.0; 
stroke:#000000; stroke-width:0; stroke-opacity:1; 
stroke-linecap:round; stroke-linejoin:round;">
<path style="fill:#000000; fill-opacity:1.0; 
stroke:#000000; stroke-width:0; stroke-opacity:1; 
stroke-linecap:round; stroke-linejoin:round;fill-rule:evenodd;"
d="M 38379.9,23466.9
38210.6,23466.9
38210.6,23356.7
38379.9,23356.7
Z" /> 
<path style="fill:#000000; fill-opacity:1.0; 
stroke:#000000; stroke-width:0; stroke-opacity:1; 
stroke-linecap:round; stroke-linejoin:round;fill-rule:evenodd;"
d="M 38379.9,23262.2
38210.6,23262.2
38210.6,23152
38379.9,23152
Z" /> 
</g>
<g >
</g>
<g style="fill:#000000; fill-opacity:1.0; 
stroke:#000000; stroke-width:0; stroke-opacity:1; 
stroke-linecap:round; stroke-linejoin:round;">
<path style="fill:#000000; fill-opacity:1.0; 
stroke:#000000; stroke-width:0; stroke-opacity:1; 
stroke-linecap:round; stroke-linejoin:round;fill-rule:evenodd;"
d="M 38068.9,23466.9
37899.6,23466.9
37899.6,23356.7
38068.9,23356.7
Z" /> 
<path style="fill:#000000; fill-opacity:1.0; 
stroke:#000000; stroke-width:0; stroke-opacity:1; 
stroke-linecap:round; stroke-linejoin:round;fill-rule:evenodd;"
d="M 38068.9,23262.2
37899.6,23262.2
37899.6,23152
38068.9,23152
Z" /> 
</g>
<g >
</g>
<g style="fill:#000000; fill-opacity:1.0; 
stroke:#000000; stroke-width:0; stroke-opacity:1; 
stroke-linecap:round; stroke-linejoin:round;">
<path style="fill:#000000; fill-opacity:1.0; 
stroke:#000000; stroke-width:0; stroke-opacity:1; 
stroke-linecap:round; stroke-linejoin:round;fill-rule:evenodd;"
d="M 37757.9,23466.9
37588.6,23466.9
37588.6,23356.7
37757.9,23356.7
Z" /> 
<path style="fill:#000000; fill-opacity:1.0; 
stroke:#000000; stroke-width:0; stroke-opacity:1; 
stroke-linecap:round; stroke-linejoin:round;fill-rule:evenodd;"
d="M 37757.9,23262.2
37588.6,23262.2
37588.6,23152
37757.9,23152
Z" /> 
</g>
<g >
</g>
<g style="fill:#000000; fill-opacity:1.0; 
stroke:#000000; stroke-width:0; stroke-opacity:1; 
stroke-linecap:round; stroke-linejoin:round;">
<path style="fill:#000000; fill-opacity:1.0; 
stroke:#000000; stroke-width:0; stroke-opacity:1; 
stroke-linecap:round; stroke-linejoin:round;fill-rule:evenodd;"
d="M 37446.9,23466.9
37277.6,23466.9
37277.6,23356.7
37446.9,23356.7
Z" /> 
<path style="fill:#000000; fill-opacity:1.0; 
stroke:#000000; stroke-width:0; stroke-opacity:1; 
stroke-linecap:round; stroke-linejoin:round;fill-rule:evenodd;"
d="M 37446.9,23262.2
37277.6,23262.2
37277.6,23152
37446.9,23152
Z" /> 
</g>
<g >
</g>
<g style="fill:#000000; fill-opacity:1.0; 
stroke:#000000; stroke-width:0; stroke-opacity:1; 
stroke-linecap:round; stroke-linejoin:round;">
<path style="fill:#000000; fill-opacity:1.0; 
stroke:#000000; stroke-width:0; stroke-opacity:1; 
stroke-linecap:round; stroke-linejoin:round;fill-rule:evenodd;"
d="M 37135.8,23466.9
36966.5,23466.9
36966.5,23356.7
37135.8,23356.7
Z" /> 
<path style="fill:#000000; fill-opacity:1.0; 
stroke:#000000; stroke-width:0; stroke-opacity:1; 
stroke-linecap:round; stroke-linejoin:round;fill-rule:evenodd;"
d="M 37135.8,23262.2
36966.5,23262.2
36966.5,23152
37135.8,23152
Z" /> 
</g>
<g >
</g>
<g style="fill:#000000; fill-opacity:1.0; 
stroke:#000000; stroke-width:0; stroke-opacity:1; 
stroke-linecap:round; stroke-linejoin:round;">
<path style="fill:#000000; fill-opacity:1.0; 
stroke:#000000; stroke-width:0; stroke-opacity:1; 
stroke-linecap:round; stroke-linejoin:round;fill-rule:evenodd;"
d="M 37212.6,20226.4
37212.6,20057.1
37322.8,20057.1
37322.8,20226.4
Z" /> 
<path style="fill:#000000; fill-opacity:1.0; 
stroke:#000000; stroke-width:0; stroke-opacity:1; 
stroke-linecap:round; stroke-linejoin:round;fill-rule:evenodd;"
d="M 37417.3,20226.4
37417.3,20057.1
37527.6,20057.1
37527.6,20226.4
Z" /> 
</g>
<g >
</g>
<g style="fill:#000000; fill-opacity:1.0; 
stroke:#000000; stroke-width:0; stroke-opacity:1; 
stroke-linecap:round; stroke-linejoin:round;">
<circle cx="40673.2" cy="23858.3" r="334.646" /> 
<circle cx="40673.2" cy="22858.3" r="334.646" /> 
<circle cx="40673.2" cy="21858.3" r="334.646" /> 
<circle cx="40673.2" cy="20858.3" r="334.646" /> 
<path style="fill:#000000; fill-opacity:1.0; 
stroke:#000000; stroke-width:0; stroke-opacity:1; 
stroke-linecap:round; stroke-linejoin:round;fill-rule:evenodd;"
d="M 40338.6,20192.9
40338.6,19523.6
41007.9,19523.6
41007.9,20192.9
Z" /> 
</g>
<g >
</g>
<g style="fill:#000000; fill-opacity:1.0; 
stroke:#000000; stroke-width:0; stroke-opacity:1; 
stroke-linecap:round; stroke-linejoin:round;">
<circle cx="35755.9" cy="23878" r="334.646" /> 
<circle cx="35755.9" cy="22878" r="334.646" /> 
<circle cx="35755.9" cy="21878" r="334.646" /> 
<circle cx="35755.9" cy="20878" r="334.646" /> 
<path style="fill:#000000; fill-opacity:1.0; 
stroke:#000000; stroke-width:0; stroke-opacity:1; 
stroke-linecap:round; stroke-linejoin:round;fill-rule:evenodd;"
d="M 35421.3,20212.6
35421.3,19543.3
36090.6,19543.3
36090.6,20212.6
Z" /> 
</g>
<g >
</g>
<g style="fill:#000000; fill-opacity:1.0; 
stroke:#000000; stroke-width:0; stroke-opacity:1; 
stroke-linecap:round; stroke-linejoin:round;">
<circle cx="37716.5" cy="21456.7" r="157.48" /> 
</g>
<g style="fill:#000000; fill-opacity:1.0; 
stroke:#000000; stroke-width:39.3701; stroke-opacity:1; 
stroke-linecap:round; stroke-linejoin:round;">
</g>
<g style="fill:#000000; fill-opacity:1.0; 
stroke:#000000; stroke-width:0; stroke-opacity:1; 
stroke-linecap:round; stroke-linejoin:round;">
<circle cx="38425.2" cy="21456.7" r="157.48" /> 
</g>
<g style="fill:#000000; fill-opacity:1.0; 
stroke:#000000; stroke-width:39.3701; stroke-opacity:1; 
stroke-linecap:round; stroke-linejoin:round;">
</g>
<g style="fill:#000000; fill-opacity:1.0; 
stroke:#000000; stroke-width:0; stroke-opacity:1; 
stroke-linecap:round; stroke-linejoin:round;">
<circle cx="38189" cy="19960.6" r="157.48" /> 
</g>
<g style="fill:#000000; fill-opacity:1.0; 
stroke:#000000; stroke-width:39.3701; stroke-opacity:1; 
stroke-linecap:round; stroke-linejoin:round;">
</g>
<g style="fill:#000000; fill-opacity:1.0; 
stroke:#000000; stroke-width:0; stroke-opacity:1; 
stroke-linecap:round; stroke-linejoin:round;">
<circle cx="39566.9" cy="21771.7" r="157.48" /> 
</g>
<g style="fill:#000000; fill-opacity:1.0; 
stroke:#000000; stroke-width:39.3701; stroke-opacity:1; 
stroke-linecap:round; stroke-linejoin:round;">
</g>
<g style="fill:#000000; fill-opacity:1.0; 
stroke:#000000; stroke-width:0; stroke-opacity:1; 
stroke-linecap:round; stroke-linejoin:round;">
<circle cx="39547.2" cy="22657.5" r="157.48" /> 
</g>
<g style="fill:#000000; fill-opacity:1.0; 
stroke:#000000; stroke-width:39.3701; stroke-opacity:1; 
stroke-linecap:round; stroke-linejoin:round;">
</g>
<g style="fill:#000000; fill-opacity:1.0; 
stroke:#000000; stroke-width:0; stroke-opacity:1; 
stroke-linecap:round; stroke-linejoin:round;">
<circle cx="39074.8" cy="22274" r="157.48" /> 
</g>
<g style="fill:#000000; fill-opacity:1.0; 
stroke:#000000; stroke-width:39.3701; stroke-opacity:1; 
stroke-linecap:round; stroke-linejoin:round;">
</g>
<g style="fill:#000000; fill-opacity:1.0; 
stroke:#000000; stroke-width:0; stroke-opacity:1; 
stroke-linecap:round; stroke-linejoin:round;">
<circle cx="39921.3" cy="20200.8" r="157.48" /> 
</g>
<g style="fill:#000000; fill-opacity:1.0; 
stroke:#000000; stroke-width:39.3701; stroke-opacity:1; 
stroke-linecap:round; stroke-linejoin:round;">
</g>
<g style="fill:#000000; fill-opacity:1.0; 
stroke:#000000; stroke-width:0; stroke-opacity:1; 
stroke-linecap:round; stroke-linejoin:round;">
<circle cx="37173.2" cy="21262.2" r="157.48" /> 
</g>
<g style="fill:#000000; fill-opacity:1.0; 
stroke:#000000; stroke-width:39.3701; stroke-opacity:1; 
stroke-linecap:round; stroke-linejoin:round;">
</g>
<g style="fill:#000000; fill-opacity:1.0; 
stroke:#000000; stroke-width:0; stroke-opacity:1; 
stroke-linecap:round; stroke-linejoin:round;">
<circle cx="37007.3" cy="20692.7" r="157.48" /> 
</g>
<g style="fill:#000000; fill-opacity:1.0; 
stroke:#000000; stroke-width:39.3701; stroke-opacity:1; 
stroke-linecap:round; stroke-linejoin:round;">
</g>
<g style="fill:#000000; fill-opacity:1.0; 
stroke:#000000; stroke-width:0; stroke-opacity:1; 
stroke-linecap:round; stroke-linejoin:round;">
<circle cx="36811" cy="19842.5" r="157.48" /> 
</g>
<g style="fill:#000000; fill-opacity:1.0; 
stroke:#000000; stroke-width:39.3701; stroke-opacity:1; 
stroke-linecap:round; stroke-linejoin:round;">
</g>
<g style="fill:#000000; fill-opacity:1.0; 
stroke:#000000; stroke-width:0; stroke-opacity:1; 
stroke-linecap:round; stroke-linejoin:round;">
<circle cx="36720.5" cy="20392.1" r="157.48" /> 
</g>
<g style="fill:#000000; fill-opacity:1.0; 
stroke:#000000; stroke-width:39.3701; stroke-opacity:1; 
stroke-linecap:round; stroke-linejoin:round;">
</g>
<g style="fill:#000000; fill-opacity:1.0; 
stroke:#000000; stroke-width:0; stroke-opacity:1; 
stroke-linecap:round; stroke-linejoin:round;">
<circle cx="37328.8" cy="24025.1" r="157.48" /> 
</g>
<g style="fill:#000000; fill-opacity:1.0; 
stroke:#000000; stroke-width:39.3701; stroke-opacity:1; 
stroke-linecap:round; stroke-linejoin:round;">
</g>
<g style="fill:#000000; fill-opacity:1.0; 
stroke:#000000; stroke-width:0; stroke-opacity:1; 
stroke-linecap:round; stroke-linejoin:round;">
<circle cx="37923" cy="23878" r="157.48" /> 
</g>
<g style="fill:#000000; fill-opacity:1.0; 
stroke:#000000; stroke-width:39.3701; stroke-opacity:1; 
stroke-linecap:round; stroke-linejoin:round;">
</g>
<g style="fill:#000000; fill-opacity:1.0; 
stroke:#000000; stroke-width:0; stroke-opacity:1; 
stroke-linecap:round; stroke-linejoin:round;">
<circle cx="40080.6" cy="21669.4" r="157.48" /> 
</g>
<g style="fill:#000000; fill-opacity:1.0; 
stroke:#000000; stroke-width:39.3701; stroke-opacity:1; 
stroke-linecap:round; stroke-linejoin:round;">
</g>
<g >
</g>
<g style="fill:#000000; fill-opacity:1.0; 
stroke:#000000; stroke-width:39.3701; stroke-opacity:1; 
stroke-linecap:round; stroke-linejoin:round;">
</g>
<g style="fill:#000000; fill-opacity:1.0; 
stroke:#000000; stroke-width:196.85; stroke-opacity:1; 
stroke-linecap:round; stroke-linejoin:round;">
</g>
<g style="fill:#000000; fill-opacity:0.0; 
stroke:#000000; stroke-width:196.85; stroke-opacity:1; 
stroke-linecap:round; stroke-linejoin:round;">
<path d="M36228 24350
L35755 23877
" />
<path d="M36228 24791
L36228 24350
" />
</g>
<g style="fill:#000000; fill-opacity:0.0; 
stroke:#000000; stroke-width:98.4252; stroke-opacity:1; 
stroke-linecap:round; stroke-linejoin:round;">
<path d="M37986 20163
L38188 19960
" />
<path d="M37986 20598
L37986 20163
" />
</g>
<g style="fill:#000000; fill-opacity:0.0; 
stroke:#000000; stroke-width:393.701; stroke-opacity:1; 
stroke-linecap:round; stroke-linejoin:round;">
<path d="M39566 21771
L39566 22637
" />
<path d="M39566 22637
L39547 22657
" />
<path d="M40228 18802
L40228 18791
" />
<path d="M38495 19653
L39376 19653
" />
<path d="M38188 19960
L38495 19653
" />
<path d="M39118 22795
L39118 22783
" />
<path d="M39409 22795
L39118 22795
" />
<path d="M39547 22657
L39409 22795
" />
</g>
<g style="fill:#000000; fill-opacity:0.0; 
stroke:#000000; stroke-width:295.276; stroke-opacity:1; 
stroke-linecap:round; stroke-linejoin:round;">
<path d="M39376 19642
L40228 18791
" />
<path d="M39376 19653
L39376 19642
" />
</g>
<g style="fill:#000000; fill-opacity:0.0; 
stroke:#000000; stroke-width:98.4252; stroke-opacity:1; 
stroke-linecap:round; stroke-linejoin:round;">
<path d="M39074 21138
L39074 22274
" />
<path d="M38242 20598
L38242 20903
" />
<path d="M38865 20929
L39074 21138
" />
<path d="M38267 20929
L38865 20929
" />
<path d="M38242 20903
L38267 20929
" />
<path d="M39796 20229
L39881 20314
" />
<path d="M39685 20229
L39796 20229
" />
<path d="M39433 19978
L39685 20229
" />
<path d="M38643 19978
L39433 19978
" />
<path d="M38498 20124
L38643 19978
" />
<path d="M38498 20598
L38498 20124
" />
<path d="M37173 21118
L37173 21262
" />
<path d="M37362 20929
L37173 21118
" />
<path d="M37705 20929
L37362 20929
" />
<path d="M37730 20903
L37705 20929
" />
<path d="M37730 20598
L37730 20903
" />
<path d="M35775 19858
L35755 19877
" />
<path d="M40673 19858
L40673 19850
" />
</g>
<g style="fill:#000000; fill-opacity:0.0; 
stroke:#000000; stroke-width:196.85; stroke-opacity:1; 
stroke-linecap:round; stroke-linejoin:round;">
<path d="M40673 19858
L40629 19814
" />
</g>
<g style="fill:#000000; fill-opacity:0.0; 
stroke:#000000; stroke-width:98.4252; stroke-opacity:1; 
stroke-linecap:round; stroke-linejoin:round;">
<path d="M38753 20598
L38753 20329
" />
<path d="M37124 20692
L37218 20598
" />
<path d="M37007 20692
L37124 20692
" />
</g>
<g style="fill:#000000; fill-opacity:0.0; 
stroke:#000000; stroke-width:295.276; stroke-opacity:1; 
stroke-linecap:round; stroke-linejoin:round;">
<path d="M39913 20787
L40387 20313
" />
<path d="M39448 20787
L39913 20787
" />
<path d="M40387 20313
L40387 20236
" />
</g>
<g style="fill:#000000; fill-opacity:0.0; 
stroke:#000000; stroke-width:196.85; stroke-opacity:1; 
stroke-linecap:round; stroke-linejoin:round;">
<path d="M40023 19696
L40437 19696
" />
<path d="M40387 20143
L40437 20094
" />
<path d="M40387 20313
L40387 20143
" />
</g>
<g style="fill:#000000; fill-opacity:0.0; 
stroke:#000000; stroke-width:295.276; stroke-opacity:1; 
stroke-linecap:round; stroke-linejoin:round;">
<path d="M39448 20787
L39448 20383
" />
<path d="M39448 20383
L39319 20254
" />
</g>
<g style="fill:#000000; fill-opacity:0.0; 
stroke:#000000; stroke-width:196.85; stroke-opacity:1; 
stroke-linecap:round; stroke-linejoin:round;">
<path d="M38785 20210
L38759 20236
" />
<path d="M39285 20210
L38785 20210
" />
<path d="M39319 20244
L39285 20210
" />
<path d="M39319 20254
L39319 20244
" />
<path d="M39874 19846
L39748 19846
" />
<path d="M40023 19696
L39874 19846
" />
</g>
<g style="fill:#000000; fill-opacity:0.0; 
stroke:#000000; stroke-width:98.4252; stroke-opacity:1; 
stroke-linecap:round; stroke-linejoin:round;">
<path d="M38987 20625
L38987 20798
" />
<path d="M38987 20798
L39330 21141
" />
<path d="M39330 21299
L39478 21446
" />
<path d="M39330 21141
L39330 21299
" />
<path d="M39826 21446
L39928 21344
" />
<path d="M39478 21446
L39826 21446
" />
<path d="M39928 21344
L40151 21344
" />
<path d="M40151 21344
L40393 21102
" />
<path d="M40393 21102
L40486 21009
" />
</g>
<g style="fill:#000000; fill-opacity:0.0; 
stroke:#000000; stroke-width:393.701; stroke-opacity:1; 
stroke-linecap:round; stroke-linejoin:round;">
<path d="M36811 19842
L37085 20116
" />
</g>
<g style="fill:#000000; fill-opacity:0.0; 
stroke:#000000; stroke-width:98.4252; stroke-opacity:1; 
stroke-linecap:round; stroke-linejoin:round;">
<path d="M37476 20596
L37474 20598
" />
<path d="M37476 20183
L37476 20596
" />
<path d="M37472 20141
L37472 20086
" />
<path d="M37472 20086
L37677 19881
" />
</g>
<g style="fill:#000000; fill-opacity:0.0; 
stroke:#000000; stroke-width:393.701; stroke-opacity:1; 
stroke-linecap:round; stroke-linejoin:round;">
<path d="M37637 19842
L37677 19881
" />
</g>
<g style="fill:#000000; fill-opacity:0.0; 
stroke:#000000; stroke-width:196.85; stroke-opacity:1; 
stroke-linecap:round; stroke-linejoin:round;">
<path d="M37494 19698
L37637 19842
" />
<path d="M37336 19698
L37494 19698
" />
<path d="M37480 19842
L37336 19698
" />
<path d="M37637 19842
L37480 19842
" />
<path d="M37494 19698
L37874 19698
" />
<path d="M37874 19746
L37738 19881
" />
<path d="M37738 19881
L37677 19881
" />
<path d="M37874 19698
L37874 19746
" />
</g>
<g style="fill:#000000; fill-opacity:0.0; 
stroke:#000000; stroke-width:98.4252; stroke-opacity:1; 
stroke-linecap:round; stroke-linejoin:round;">
<path d="M37051 23411
L36795 23411
" />
</g>
<g style="fill:#000000; fill-opacity:0.0; 
stroke:#000000; stroke-width:295.276; stroke-opacity:1; 
stroke-linecap:round; stroke-linejoin:round;">
<path d="M36562 20549
L36562 20854
" />
<path d="M36720 20392
L36562 20549
" />
<path d="M36562 20854
L36789 21080
" />
<path d="M36789 22760
L36740 22809
" />
<path d="M36789 21080
L36789 22760
" />
<path d="M36740 22809
L36740 22970
" />
<path d="M36740 22970
L36740 23228
" />
</g>
<g style="fill:#000000; fill-opacity:0.0; 
stroke:#000000; stroke-width:196.85; stroke-opacity:1; 
stroke-linecap:round; stroke-linejoin:round;">
<path d="M36740 23356
L36740 23228
" />
<path d="M36795 23411
L36740 23356
" />
<path d="M36822 23439
L36942 23439
" />
<path d="M36740 23356
L36822 23439
" />
</g>
<g style="fill:#000000; fill-opacity:0.0; 
stroke:#000000; stroke-width:98.4252; stroke-opacity:1; 
stroke-linecap:round; stroke-linejoin:round;">
<path d="M37218 22783
L37218 22791
" />
<path d="M37218 22783
L37155 22783
" />
<path d="M37051 22888
L37051 23207
" />
<path d="M37155 22783
L37051 22888
" />
<path d="M36583 19301
L36435 19449
" />
<path d="M36840 19301
L36583 19301
" />
<path d="M37011 19472
L36840 19301
" />
<path d="M38228 19263
L38019 19472
" />
<path d="M38228 18791
L38228 19263
" />
<path d="M37011 19472
L38019 19472
" />
<path d="M36435 19449
L36435 19914
" />
<path d="M36435 19849
L36435 19914
" />
<path d="M37362 23565
L37362 23411
" />
</g>
<g style="fill:#000000; fill-opacity:0.0; 
stroke:#000000; stroke-width:196.85; stroke-opacity:1; 
stroke-linecap:round; stroke-linejoin:round;">
<path d="M37283 23644
L37143 23644
" />
<path d="M37362 23565
L37283 23644
" />
<path d="M37143 23644
L36929 23858
" />
</g>
<g style="fill:#000000; fill-opacity:0.0; 
stroke:#000000; stroke-width:393.701; stroke-opacity:1; 
stroke-linecap:round; stroke-linejoin:round;">
<path d="M36712 23858
L36316 23462
" />
<path d="M36929 23858
L36712 23858
" />
</g>
<g style="fill:#000000; fill-opacity:0.0; 
stroke:#000000; stroke-width:295.276; stroke-opacity:1; 
stroke-linecap:round; stroke-linejoin:round;">
<path d="M36366 23200
L36366 21192
" />
<path d="M36316 23250
L36366 23200
" />
<path d="M36316 23462
L36316 23250
" />
</g>
<g style="fill:#000000; fill-opacity:0.0; 
stroke:#000000; stroke-width:98.4252; stroke-opacity:1; 
stroke-linecap:round; stroke-linejoin:round;">
<path d="M36287 21114
L36366 21192
" />
<path d="M36287 20435
L36287 21114
" />
<path d="M36435 20287
L36287 20435
" />
<path d="M36435 19914
L36435 20287
" />
<path d="M37474 23000
L37435 23039
" />
<path d="M37474 22783
L37474 23000
" />
<path d="M37435 23134
L37362 23207
" />
<path d="M37435 23039
L37435 23134
" />
<path d="M37673 23411
L37673 23625
" />
<path d="M37673 23625
L37637 23661
" />
</g>
<g style="fill:#000000; fill-opacity:0.0; 
stroke:#000000; stroke-width:196.85; stroke-opacity:1; 
stroke-linecap:round; stroke-linejoin:round;">
<path d="M37673 23644
L37673 23625
" />
<path d="M37340 23919
L37397 23919
" />
<path d="M37397 23919
L37673 23644
" />
<path d="M37328 23931
L37340 23919
" />
<path d="M37328 24025
L37328 23931
" />
</g>
<g style="fill:#000000; fill-opacity:0.0; 
stroke:#000000; stroke-width:98.4252; stroke-opacity:1; 
stroke-linecap:round; stroke-linejoin:round;">
<path d="M37730 23150
L37730 22783
" />
<path d="M37673 23207
L37730 23150
" />
<path d="M37984 23411
L37984 23574
" />
</g>
<g style="fill:#000000; fill-opacity:0.0; 
stroke:#000000; stroke-width:196.85; stroke-opacity:1; 
stroke-linecap:round; stroke-linejoin:round;">
<path d="M37984 23816
L37922 23877
" />
<path d="M37984 23574
L37984 23816
" />
</g>
<g style="fill:#000000; fill-opacity:0.0; 
stroke:#000000; stroke-width:98.4252; stroke-opacity:1; 
stroke-linecap:round; stroke-linejoin:round;">
<path d="M37984 22785
L37986 22783
" />
<path d="M37984 23207
L37984 22785
" />
<path d="M37340 24791
L37228 24791
" />
<path d="M38379 24166
L38411 24133
" />
<path d="M38379 24140
L38533 23986
" />
<path d="M38379 24166
L38379 24140
" />
<path d="M38533 23986
L38533 23927
" />
<path d="M38307 23423
L38295 23411
" />
<path d="M38533 23927
L38385 23779
" />
</g>
<g style="fill:#000000; fill-opacity:0.0; 
stroke:#000000; stroke-width:295.276; stroke-opacity:1; 
stroke-linecap:round; stroke-linejoin:round;">
<path d="M38385 23779
L38385 23897
" />
</g>
<g style="fill:#000000; fill-opacity:0.0; 
stroke:#000000; stroke-width:98.4252; stroke-opacity:1; 
stroke-linecap:round; stroke-linejoin:round;">
<path d="M37228 24791
L37744 24791
" />
<path d="M38149 24068
L38215 24068
" />
<path d="M37800 24735
L37800 24417
" />
<path d="M37744 24791
L37800 24735
" />
</g>
<g style="fill:#000000; fill-opacity:0.0; 
stroke:#000000; stroke-width:196.85; stroke-opacity:1; 
stroke-linecap:round; stroke-linejoin:round;">
<path d="M38385 23897
L38215 24068
" />
<path d="M38251 24117
L38362 24117
" />
<path d="M38215 24081
L38251 24117
" />
<path d="M38215 24068
L38215 24081
" />
<path d="M38385 23700
L38307 23622
" />
<path d="M38385 23779
L38385 23700
" />
</g>
<g style="fill:#000000; fill-opacity:0.0; 
stroke:#000000; stroke-width:98.4252; stroke-opacity:1; 
stroke-linecap:round; stroke-linejoin:round;">
<path d="M38307 23622
L38307 23423
" />
</g>
<g style="fill:#000000; fill-opacity:0.0; 
stroke:#000000; stroke-width:196.85; stroke-opacity:1; 
stroke-linecap:round; stroke-linejoin:round;">
<path d="M38215 24068
L38166 24117
" />
<path d="M38166 24117
L38178 24117
" />
</g>
<g style="fill:#000000; fill-opacity:0.0; 
stroke:#000000; stroke-width:98.4252; stroke-opacity:1; 
stroke-linecap:round; stroke-linejoin:round;">
<path d="M37978 24238
L38051 24166
" />
<path d="M37800 24417
L37978 24238
" />
<path d="M37978 24238
L38149 24068
" />
<path d="M38201 24166
L38251 24117
" />
<path d="M38051 24166
L38201 24166
" />
<path d="M38295 23207
L38295 23167
" />
<path d="M38242 23114
L38242 22783
" />
<path d="M38295 23167
L38242 23114
" />
<path d="M38610 23569
L38741 23700
" />
<path d="M38610 23415
L38610 23569
" />
<path d="M38741 23700
L38741 23741
" />
<path d="M38741 23741
L38858 23858
" />
</g>
<g style="fill:#000000; fill-opacity:0.0; 
stroke:#000000; stroke-width:393.701; stroke-opacity:1; 
stroke-linecap:round; stroke-linejoin:round;">
<path d="M38228 24780
L38228 24791
" />
<path d="M38858 24150
L38228 24780
" />
<path d="M38858 23858
L38858 24150
" />
</g>
<g style="fill:#000000; fill-opacity:0.0; 
stroke:#000000; stroke-width:295.276; stroke-opacity:1; 
stroke-linecap:round; stroke-linejoin:round;">
<path d="M38759 23718
L38759 23697
" />
<path d="M38858 23817
L38759 23718
" />
<path d="M38858 23858
L38858 23817
" />
</g>
<g style="fill:#000000; fill-opacity:0.0; 
stroke:#000000; stroke-width:196.85; stroke-opacity:1; 
stroke-linecap:round; stroke-linejoin:round;">
<path d="M38710 23644
L38654 23589
" />
<path d="M38710 23669
L38710 23644
" />
<path d="M38741 23700
L38710 23669
" />
</g>
<g style="fill:#000000; fill-opacity:0.0; 
stroke:#000000; stroke-width:98.4252; stroke-opacity:1; 
stroke-linecap:round; stroke-linejoin:round;">
<path d="M38498 22850
L38535 22888
" />
<path d="M38498 22783
L38498 22850
" />
<path d="M38535 23090
L38562 23118
" />
<path d="M38535 22888
L38535 23090
" />
<path d="M38562 23163
L38610 23211
" />
<path d="M38562 23118
L38562 23163
" />
<path d="M39340 23415
L39409 23346
" />
</g>
<g style="fill:#000000; fill-opacity:0.0; 
stroke:#000000; stroke-width:393.701; stroke-opacity:1; 
stroke-linecap:round; stroke-linejoin:round;">
<path d="M40062 23007
L40062 21669
" />
<path d="M39724 23346
L40062 23007
" />
<path d="M39409 23346
L39724 23346
" />
</g>
<g style="fill:#000000; fill-opacity:0.0; 
stroke:#000000; stroke-width:196.85; stroke-opacity:1; 
stroke-linecap:round; stroke-linejoin:round;">
<path d="M39340 23415
L39124 23415
" />
</g>
<g style="fill:#000000; fill-opacity:0.0; 
stroke:#000000; stroke-width:98.4252; stroke-opacity:1; 
stroke-linecap:round; stroke-linejoin:round;">
<path d="M38925 23415
L39124 23415
" />
<path d="M38753 22968
L38771 22986
" />
<path d="M38753 22783
L38753 22968
" />
<path d="M38771 22986
L38771 23051
" />
<path d="M38925 23205
L38925 23211
" />
<path d="M38771 23051
L38925 23205
" />
</g>
<g >
</g>
</g> 
</svg>
